<?xml version="1.0" encoding="UTF-8" standalone="no"?>
<svg
   xmlns:svg="http://www.w3.org/2000/svg"
   viewBox="0 -256 1792 1792"
   width="100%"
   height="100%">
  <g
     transform="matrix(1,0,0,-1,205.01695,1368.9492)"
     id="g3015">
    <path
       d="M 1408,800 V 608 q 0,-40 -28,-68 -28,-28 -68,-28 H 896 V 96 Q 896,56 868,28 840,0 800,0 H 608 Q 568,0 540,28 512,56 512,96 V 512 H 96 Q 56,512 28,540 0,568 0,608 v 192 q 0,40 28,68 28,28 68,28 h 416 v 416 q 0,40 28,68 28,28 68,28 h 192 q 40,0 68,-28 28,-28 28,-68 V 896 h 416 q 40,0 68,-28 28,-28 28,-68 z"
       id="path3017"
       inkscape:connector-curvature="0"
       style="fill:#cccccc" />
  </g>
</svg>
